<?xml version="1.0" encoding="UTF-8"?>
<svg id="Layer_2" data-name="Layer 2" xmlns="http://www.w3.org/2000/svg" viewBox="0 0 51.22 14.98">
  <defs>
    <style>
      .cls-1 {
        fill: #045876;
      }

      .cls-1, .cls-2 {
        stroke-width: 0px;
      }

      .cls-2 {
        fill: #11bef0;
      }
    </style>
  </defs>
  <g id="Layer_1-2" data-name="Layer 1">
    <path class="cls-1" d="m.24,14.74c-.12.01-.22-.07-.24-.19,0-.02,0-.03,0-.05V4.53c0-.13.06-.25.18-.3,1.31-.55,2.71-.84,4.13-.84,2.88,0,4.84,1.35,4.84,4.64v6.47c0,.15-.08.24-.26.24h-1.26c-.12.01-.22-.07-.24-.19,0-.02,0-.03,0-.05v-6.43c0-2.24-1.14-3.1-3.07-3.1-.86,0-1.71.14-2.53.39v9.14c0,.15-.08.24-.26.24H.24Z"/>
    <path class="cls-1" d="m20.66,9.78c0,.18-.09.26-.24.26h-7.03v.9c0,1.61,1.2,2.47,2.8,2.47,1.48,0,2.49-.58,3.29-1.2.1-.08.24-.07.32.03,0,.01.02.02.03.04l.62.82c.11.13.08.23-.04.34-1.18,1.02-2.7,1.57-4.26,1.55-2.32,0-4.54-1.33-4.54-4.04v-3.27c0-2.94,2.19-4.28,4.56-4.28s4.49,1.33,4.49,4.28v2.11Zm-4.49-4.79c-1.61,0-2.77.84-2.77,2.69v.9h5.55v-.9c0-1.83-1.2-2.69-2.77-2.69Z"/>
    <path class="cls-1" d="m26.89,13.34c.24,0,.65-.02,1.03-.04.18,0,.26.08.26.23v1.14c.01.13-.09.25-.22.26-.39.02-.88.04-1.16.04-2.15,0-3.74-1.16-3.74-3.79V1.16c-.02-.12.07-.24.2-.25.02,0,.04,0,.06,0h1.12c.13,0,.22.09.24.24l.15,2.6h2.79c.12-.01.22.07.24.19,0,.01,0,.03,0,.04v1.08c0,.17-.08.26-.24.26h-2.79v5.78c0,1.41.73,2.24,2.06,2.24Z"/>
    <path class="cls-1" d="m33.66,14.98c-1.53.01-3.02-.47-4.26-1.38-.11-.07-.14-.22-.07-.34,0,0,0,0,0,0l.58-.99c.09-.15.19-.18.34-.07.98.76,2.19,1.19,3.43,1.2,1.45,0,2.53-.6,2.53-1.72,0-1.2-1.33-1.48-2.53-1.72-1.55-.32-4.19-.93-4.19-3.42,0-2.19,2.09-3.16,4.23-3.16,1.31,0,2.61.35,3.74,1.01.1.03.16.14.13.25,0,.03-.02.05-.04.07l-.58.97c-.04.11-.16.16-.27.12-.02,0-.04-.02-.05-.03-.92-.51-1.96-.78-3.01-.8-1.51,0-2.41.6-2.41,1.57,0,1.18,1.26,1.5,2.8,1.81,1.72.34,3.98.84,3.98,3.25,0,2.18-1.84,3.36-4.36,3.36Z"/>
    <circle class="cls-2" cx="43.72" cy="2.5" r="2.5"/>
    <circle class="cls-2" cx="49.02" cy="2.5" r="1.6"/>
    <circle class="cls-2" cx="49.02" cy="7.79" r="2.2"/>
    <circle class="cls-2" cx="43.72" cy="13.08" r="1.9"/>
  </g>
</svg>